HIERARCHY
ROOT Hips
{
	OFFSET 0.000000 0.000000 0.000000 
	CHANNELS 6 Xposition Yposition Zposition Zrotation Yrotation Xrotation
	JOINT LeftUpLeg
	{
		OFFSET 1.363060 -1.794630 0.839290 
		CHANNELS 3 Zrotation Yrotation Xrotation
		JOINT LeftLeg
		{
			OFFSET 2.448110 -6.726130 0.000000 
			CHANNELS 3 Zrotation Yrotation Xrotation
			JOINT LeftFoot
			{
				OFFSET 2.562200 -7.039590 0.000000 
				CHANNELS 3 Zrotation Yrotation Xrotation
				JOINT LeftToeBase
				{
					OFFSET 0.157640 -0.433110 2.322550 
					CHANNELS 3 Zrotation Yrotation Xrotation
					End Site
					{
						OFFSET 0.000000 0.000000 0.000000 
					}
				}
			}
		}
	}
	JOINT RightUpLeg
	{
		OFFSET -1.305520 -1.794630 0.839290 
		CHANNELS 3 Zrotation Yrotation Xrotation
		JOINT RightLeg
		{
			OFFSET -2.542530 -6.985550 0.000000 
			CHANNELS 3 Zrotation Yrotation Xrotation
			JOINT RightFoot
			{
				OFFSET -2.568260 -7.056230 0.000000 
				CHANNELS 3 Zrotation Yrotation Xrotation
				JOINT RightToeBase
				{
					OFFSET -0.164730 -0.452590 2.363150 
					CHANNELS 3 Zrotation Yrotation Xrotation
					End Site
					{
						OFFSET 0.000000 0.000000 0.000000 
					}
				}
			}
		}
	}
	JOINT Spine
	{
		OFFSET 0.028270 2.035590 -0.193380 
		CHANNELS 3 Zrotation Yrotation Xrotation
		JOINT Spine1
		{
			OFFSET 0.056720 2.048850 -0.042750 
			CHANNELS 3 Zrotation Yrotation Xrotation
			JOINT Neck1
			{
				OFFSET -0.054170 1.746240 0.172020 
				CHANNELS 3 Zrotation Yrotation Xrotation
				JOINT Head
				{
					OFFSET 0.104070 1.761360 -0.123970 
					CHANNELS 3 Zrotation Yrotation Xrotation
					End Site
					{
						OFFSET 0.000000 0.000000 0.000000 
					}
				}
			}
			JOINT LeftArm
			{
				OFFSET 3.362410 1.200890 -0.311210 
				CHANNELS 3 Zrotation Yrotation Xrotation
				JOINT LeftForeArm
				{
					OFFSET 4.983000 -0.000000 -0.000000 
					CHANNELS 3 Zrotation Yrotation Xrotation
					JOINT LeftHand
					{
						OFFSET 3.483560 -0.000000 -0.000000 
						CHANNELS 3 Zrotation Yrotation Xrotation
						JOINT LeftHandIndex1
						{
							OFFSET 0.715260 -0.000000 -0.000000 
							CHANNELS 3 Zrotation Yrotation Xrotation
							End Site
							{
								OFFSET 0.000000 0.000000 0.000000 
							}
						}
					}
				}
			}
			JOINT RightArm
			{
				OFFSET -3.136600 1.374050 -0.404650 
				CHANNELS 3 Zrotation Yrotation Xrotation
				JOINT RightForeArm
				{
					OFFSET -5.241900 -0.000000 -0.000000 
					CHANNELS 3 Zrotation Yrotation Xrotation
					JOINT RightHand
					{
						OFFSET -3.444170 -0.000000 -0.000000 
						CHANNELS 3 Zrotation Yrotation Xrotation
						JOINT RightHandIndex1
						{
							OFFSET -0.622530 -0.000000 -0.000000 
							CHANNELS 3 Zrotation Yrotation Xrotation
							End Site
							{
								OFFSET 0.000000 0.000000 0.000000 
							}
						}
					}
				}
			}
		}
	}
}
MOTION
Frames: 9
Frame Time: 0.041667
-0.787042 19.308968 9.043370 6.271402 4.964044 9.597325 -17.248052 -9.467968 6.438918 2.238864 9.516608 35.710157 4.336021 -5.547807 48.616979 0.253000 -3.236600 -8.938200 6.715548 9.766576 -35.361758 0.431565 -7.398792 15.901498 4.824392 -25.333662 29.947775 -0.501000 4.537700 -12.594500 2.155104 -4.586210 -1.874853 3.978489 -2.808743 -9.685224 6.127154 -3.466203 7.801929 0.683000 -1.494700 6.873600 -79.380648 13.649124 41.660398 142.589960 -47.012395 -104.336117 -0.318274 -0.467923 -36.697480 -7.125000 0.000000 0.000000 71.189767 -43.834344 33.927647 -99.161405 64.665479 -71.636152 0.953189 -0.363981 -16.477443 7.125000 0.000000 0.000000 
-0.766442 19.258452 9.596463 6.213969 4.565208 9.249730 -17.660361 -9.076539 5.840346 3.343796 10.467384 39.335417 4.267094 -5.719484 48.716599 0.186400 -2.780400 -7.667800 6.989643 9.688597 -34.633368 0.508107 -7.159178 15.381235 4.897675 -25.717268 30.307221 -0.523700 4.637900 -12.878500 2.150625 -4.360491 -1.686577 3.772035 -2.710724 -9.322753 6.233125 -3.470320 7.748445 0.751700 -1.493800 6.871400 -79.788014 13.661615 41.271321 140.319916 -48.534095 -102.772062 -0.315954 -0.479628 -36.520859 -7.125000 0.000000 0.000000 71.671351 -42.476596 33.381551 -97.788646 64.603025 -70.672705 1.004555 -0.364265 -16.228187 7.125000 0.000000 0.000000 
-0.741701 19.182574 10.159804 6.074348 4.103606 8.767588 -18.057133 -8.557789 5.308230 4.549778 11.405547 43.323874 4.150592 -6.120011 48.346903 0.224800 -3.051900 -8.423200 7.543898 9.411141 -33.881277 0.541549 -7.039483 15.343309 4.806690 -25.521899 30.607250 -0.409400 4.107300 -11.378700 2.132686 -4.150844 -1.548614 3.476871 -2.614831 -9.111038 6.308954 -3.501026 7.694958 0.791700 -1.505700 6.818200 -80.183815 14.146429 40.702354 137.911196 -50.025216 -101.068025 -0.317119 -0.514269 -36.420941 -7.125000 0.000000 0.000000 71.980665 -41.439604 33.135245 -96.366141 64.553983 -69.653600 1.048360 -0.366618 -15.921586 7.125000 0.000000 0.000000 
-0.724517 19.103797 10.703166 5.592945 3.497769 8.394130 -18.008182 -7.935470 4.232519 5.956976 12.369372 47.507277 4.051079 -5.588017 48.235448 0.177100 -2.711000 -7.475100 8.636662 9.108642 -33.489875 0.556910 -7.046838 15.884181 4.137640 -24.109631 31.526431 -0.437700 4.245100 -11.767200 2.191030 -3.809299 -1.430637 3.235967 -2.453073 -9.036677 6.275693 -3.626262 7.509940 0.745200 -1.569500 6.745800 -80.576300 14.477956 40.038628 135.319678 -51.473006 -99.203467 -0.302965 -0.567048 -36.061789 -7.125000 0.000000 0.000000 72.216401 -40.047524 33.033663 -94.752978 64.452653 -68.477954 1.110560 -0.375259 -15.679510 7.125000 0.000000 0.000000 
-0.716029 19.010011 11.229654 4.801196 2.702573 8.056810 -17.496221 -7.080483 2.644594 7.508626 13.314220 51.883002 4.039031 -4.717384 48.550794 0.117600 -2.211300 -6.089900 10.197130 8.901759 -33.325185 0.543056 -7.160660 16.957994 3.106831 -21.715488 32.676101 -0.478900 4.437700 -12.311500 2.344677 -3.316442 -1.407011 3.109499 -2.210141 -9.300565 6.303200 -3.695528 7.391342 0.762900 -1.609800 6.672400 -81.139003 14.972638 39.407839 132.540598 -52.883664 -97.197669 -0.303172 -0.574552 -35.467060 -7.125000 0.000000 0.000000 72.148132 -38.635435 33.207921 -93.256711 64.335194 -67.382877 1.169889 -0.365471 -15.749193 7.125000 0.000000 0.000000 
-0.703607 18.892622 11.762354 4.275988 1.718233 7.569539 -17.321833 -5.941883 1.150012 9.011555 14.118354 56.452016 3.918765 -4.491933 47.900158 0.242700 -3.170100 -8.752600 11.590040 8.721097 -33.131203 0.484085 -7.398922 18.604092 1.986420 -18.391794 33.214095 -0.034200 1.193000 -3.279900 2.405855 -2.779920 -1.382788 2.943594 -1.943081 -9.648457 6.347110 -3.698464 7.430299 0.799200 -1.611300 6.645800 -81.667526 15.686618 38.709257 129.780198 -54.162088 -95.185230 -0.326815 -0.572063 -35.081651 -7.125000 0.000000 0.000000 72.117485 -37.219147 33.553841 -91.587023 64.177320 -66.143307 1.207443 -0.362711 -16.021912 7.125000 0.000000 0.000000 
-0.688390 18.768194 12.302507 3.917221 0.722630 7.146789 -17.351984 -4.884842 -0.317944 10.458998 14.797760 61.026885 3.667374 -4.338291 46.328097 0.996500 -6.353000 -17.812100 12.873743 8.775040 -33.067236 0.325709 -7.839402 21.105783 1.070263 -14.199816 31.775221 -0.374600 -3.930900 10.882500 2.410607 -2.284127 -1.308324 2.753014 -1.696854 -9.771759 6.381140 -3.681256 7.384581 0.818600 -1.602700 6.602500 -82.081792 16.226176 38.058448 126.658361 -55.447724 -92.877709 -0.343464 -0.590577 -34.350814 -7.125000 0.000000 0.000000 72.078022 -35.646208 33.978479 -90.205510 63.994841 -65.089564 1.232725 -0.379334 -16.377697 7.125000 0.000000 0.000000 
-0.680212 18.631345 12.839348 3.536265 -0.405697 6.837515 -17.206915 -3.740381 -2.093668 11.954903 15.418850 65.512560 3.749856 -4.335137 46.645425 0.111200 -2.150500 -5.921800 14.295846 9.163249 -33.028927 -0.182279 -8.620825 24.342315 0.954908 -11.760360 28.688824 -0.362600 -3.868000 10.705600 2.453177 -1.757411 -1.232080 2.722187 -1.423695 -9.773722 6.356013 -3.680416 7.458048 0.809100 -1.601100 6.641500 -82.443480 16.825378 37.432157 123.361677 -56.634948 -90.418684 -0.345259 -0.618020 -33.712438 -7.125000 0.000000 0.000000 71.948595 -34.171998 34.525465 -89.502295 63.846994 -64.522184 1.263485 -0.379644 -16.612933 7.125000 0.000000 0.000000 
-0.671620 18.479692 13.362938 3.319902 -1.273951 6.622517 -17.077697 -2.960766 -4.050092 13.400487 15.961859 69.999498 3.873797 -4.756621 47.083896 0.081500 -1.841200 -5.066900 15.450382 9.796438 -32.933330 -0.966369 -9.575343 27.913965 1.455537 -10.948036 24.304902 -0.226600 -3.064100 8.457300 2.440130 -1.340304 -1.178896 2.660993 -1.200745 -9.834960 6.384374 -3.780139 7.765197 0.798400 -1.626500 6.855200 -82.732527 17.336813 36.786652 119.979173 -57.691576 -87.854118 -0.357276 -0.688891 -33.421066 -7.125000 0.000000 0.000000 72.081255 -32.472734 35.016498 -88.848244 63.660872 -63.973100 1.293782 -0.380503 -16.679995 7.125000 0.000000 0.000000 
